<?xml version="1.0" encoding="UTF-8" standalone="no"?>
<!DOCTYPE svg PUBLIC "-//W3C//DTD SVG 1.1//EN" "http://www.w3.org/Graphics/SVG/1.1/DTD/svg11.dtd">
<svg version="1.1" xmlns="http://www.w3.org/2000/svg" xmlns:xlink="http://www.w3.org/1999/xlink" preserveAspectRatio="xMidYMid meet" viewBox="-1.0000000000000036 -1.0000000000000036 28.000000000000004 28.000000000000004" width="24" height="24"><defs><path d="M24 0C24 0 24 0 24 0C24 14.4 24 22.4 24 24C24 24 24 24 24 24C9.6 24 1.6 24 0 24C0 24 0 24 0 24C0 9.6 0 1.6 0 0C0 0 0 0 0 0C14.4 0 22.4 0 24 0Z" id="i7DVGHIP0r"></path><path d="M19.01 20.71C18.54 20.5 16.2 19.46 12 17.59C7.8 19.46 5.46 20.5 4.99 20.71C3.6 21.33 2.22 19.84 2.93 18.5C3.69 17.05 9.82 5.48 10.59 4.03C11.19 2.9 12.81 2.9 13.41 4.03C13.92 5 16.48 9.82 21.07 18.5C20.62 20.38 19.93 21.12 19.01 20.71Z" id="b9W4XZ2Ve"></path></defs><g><g><use xlink:href="#i7DVGHIP0r" opacity="1" fill="#000000" fill-opacity="0"></use><g><use xlink:href="#i7DVGHIP0r" opacity="1" fill-opacity="0" stroke="#000000" stroke-width="1" stroke-opacity="0"></use></g></g><g><use xlink:href="#b9W4XZ2Ve" opacity="1" fill="#ffffff" fill-opacity="1"></use><g><use xlink:href="#b9W4XZ2Ve" opacity="1" fill-opacity="0" stroke="#000000" stroke-width="1" stroke-opacity="0"></use></g></g></g></svg>